<svg width="1000" height="1000" viewBox="0 0 1000 1000" fill="none" xmlns="http://www.w3.org/2000/svg">
<rect width="1000" height="1000" fill="#47EEA8"/>
<path d="M241 407.353C241 359.275 241 335.236 250.363 316.872C258.598 300.72 271.74 287.587 287.903 279.357C306.278 270 330.333 270 378.442 270H530.739C647.661 270 706.122 270 730.642 292.108C751.875 311.253 762.182 339.703 758.134 367.995C753.46 400.666 708.549 438.067 618.728 512.87L466.43 639.702C394.519 699.589 358.563 729.533 328.197 729.99C301.798 730.388 276.683 718.632 260.088 698.111C241 674.505 241 627.731 241 534.184V407.353Z" fill="#2A2A2A"/>
</svg>
