<svg width="519" height="506" viewBox="0 0 519 506" fill="none" xmlns="http://www.w3.org/2000/svg">
<path d="M0 165.139C1.30807 157.041 2.10816 148.801 4.01312 140.846C17.9701 82.7246 52.8182 43.503 107.999 23.2713C145.844 9.39108 196.389 13.4659 230.538 33.3613C228.506 34.6419 226.678 35.3922 225.369 36.6987C205.202 56.814 185.035 76.9164 165.008 97.174C137.487 124.999 138.122 167.778 166.29 193.443C187.346 212.627 218.994 215.912 242.336 199.794C254.147 191.645 264.294 180.986 275.152 171.413C290.087 158.244 304.971 145.024 320.059 131.661C321.252 132.722 322.307 133.537 323.234 134.481C370.324 182.434 417.415 230.375 464.48 278.354C474.589 288.664 475.503 302.363 466.88 312.026C458.841 321.016 445.621 322.207 436.185 314.717C434.191 313.139 432.375 311.315 430.584 309.491C405.35 283.826 380.128 258.148 354.945 232.432C350.36 227.749 345.306 224.955 338.613 226.843C328.263 229.754 323.996 241.939 330.307 250.762C331.59 252.56 333.216 254.099 334.765 255.69C360.203 281.627 385.704 307.511 411.103 333.5C421.771 344.417 421.568 359.734 410.887 368.944C402.823 375.878 391.215 376.279 382.795 369.798C380.789 368.245 378.947 366.434 377.157 364.623C351.795 338.842 326.447 313.061 301.149 287.215C296.551 282.519 291.51 279.764 284.817 281.64C274.492 284.537 270.225 296.801 276.562 305.584C277.857 307.369 279.483 308.921 281.032 310.5C306.356 336.32 331.717 362.088 357.015 387.934C366.883 398.011 368.178 411.244 359.834 420.726C356.964 423.986 352.786 426.043 348.785 428.941C347.198 426.146 346.284 424.542 345.369 422.925C336.34 407.105 323.005 397.907 305.022 396.42C300.247 396.019 298.495 394.466 298.177 389.473C296.539 364.403 276.156 343.603 251.747 341.559C249.74 341.391 247.759 341.054 245.105 340.718C244.787 325.88 240.088 312.789 229.725 302.169C219.337 291.51 206.561 286.516 191.842 286.206C191.131 281.614 190.737 277.345 189.785 273.218C181.581 237.903 145.412 222.29 113.599 238.705C107.097 242.056 101.153 247.01 95.8322 252.172C82.4975 265.121 69.6834 278.6 56.6535 291.859C55.4724 293.062 54.2406 294.2 52.6912 295.701C42.0488 285.572 32.7018 274.603 24.9677 262.262C11.2139 240.271 3.14953 216.262 0.787383 190.274C0.685786 189.096 0.292094 187.958 0.0253995 186.807C0 179.588 0 172.357 0 165.139Z" fill="#00252A"/>
<path d="M321.722 90.4133C320.3 91.6034 318.979 92.6512 317.735 93.7507C288.398 119.713 259.024 145.624 229.776 171.689C218.956 181.34 206.98 182.517 194.497 176.54C181.759 170.448 175.307 159.646 175.269 145.184C175.244 135.741 178.99 127.759 185.505 121.239C213.483 93.285 240.698 64.438 269.831 37.7772C303.562 6.88628 344.176 -4.65253 389.171 1.66018C432.667 7.75298 467.084 29.7828 492.191 66.2102C512.904 96.2732 521.451 130.036 518.403 166.761C515.774 198.389 504.408 226.356 484.838 250.961C484.114 251.879 483.263 252.694 482.222 253.845C428.68 199.32 375.303 144.964 321.722 90.4133Z" fill="#00252A"/>
<path d="M83.1199 319.737C83.1199 312.092 85.4439 306.49 89.8888 301.911C100.569 290.916 111.148 279.817 122.146 269.157C131.823 259.766 145.577 260.089 154.416 269.313C163.242 278.51 163.217 292.455 153.946 302.209C143.507 313.191 132.877 324.006 122.095 334.639C114.907 341.728 106.284 343.746 96.9245 339.619C88.0347 335.7 83.6787 328.365 83.1199 319.737Z" fill="#00252A"/>
<path d="M189.772 316.867C201.29 317.708 208.339 321.783 212.352 330.321C216.352 338.832 215.908 347.59 209.685 354.446C198.128 367.162 186.102 379.503 173.58 391.236C164.956 399.32 151.469 397.872 143.342 389.321C135.328 380.887 134.21 367.485 142.059 358.87C153.628 346.167 165.782 333.955 178.253 322.184C181.682 318.963 187.181 318.006 189.772 316.867Z" fill="#00252A"/>
<path d="M215.642 451.425C204.059 450.597 196.998 446.471 192.998 437.985C188.998 429.512 189.404 420.741 195.665 413.872C207.234 401.169 219.286 388.867 231.758 377.07C240.127 369.166 253.487 370.395 261.653 378.583C269.793 386.759 271.304 400.458 263.621 409.008C252.014 421.905 239.708 434.207 227.122 446.121C223.706 449.342 218.207 450.3 215.642 451.425Z" fill="#00252A"/>
<path d="M322.332 449.526C322.027 456.279 319.919 461.777 315.575 466.239C304.882 477.209 294.291 488.295 283.344 499.006C273.717 508.423 260.052 508.216 251.099 499.058C242.158 489.899 242.044 475.967 251.315 466.214C262.11 454.869 273.069 443.666 284.309 432.774C291.332 425.97 299.917 424.78 308.743 428.764C317.595 432.8 321.76 440.303 322.332 449.526Z" fill="#00252A"/>
</svg>
