<svg width="518" height="460" viewBox="0 0 518 460" fill="none" xmlns="http://www.w3.org/2000/svg">
<path d="M0 137.353C0 89.2748 0 65.2358 9.36269 46.8724C17.5983 30.7196 30.7396 17.5869 46.903 9.3566C65.2783 0 89.3329 0 137.442 0H289.739C406.661 0 465.122 0 489.642 22.1084C510.875 41.2534 521.182 69.7029 517.134 97.9948C512.46 130.666 467.549 168.067 377.728 242.87L225.43 369.702C153.519 429.589 117.563 459.533 87.1965 459.99C60.798 460.388 35.6826 448.632 19.0885 428.111C0 404.505 0 357.731 0 264.184V137.353Z" fill="#2A2A2A"/>
</svg>
