<svg width="1000" height="1000" viewBox="0 0 1000 1000" fill="none" xmlns="http://www.w3.org/2000/svg">
<rect width="1000" height="1000" fill="#00252A"/>
<g clip-path="url(#clip0_88_9)">
<path d="M242 289.139C243.308 281.041 244.108 272.801 246.013 264.846C259.97 206.725 294.818 167.503 349.998 147.271C387.844 133.391 438.389 137.466 472.538 157.361C470.506 158.642 468.677 159.392 467.369 160.699C447.202 180.814 427.035 200.916 407.008 221.174C379.487 248.999 380.122 291.778 408.29 317.443C429.346 336.627 460.994 339.912 484.336 323.794C496.147 315.645 506.294 304.986 517.152 295.413C532.087 282.244 546.971 269.024 562.059 255.661C563.252 256.722 564.306 257.537 565.234 258.481C612.324 306.434 659.415 354.375 706.48 402.354C716.589 412.664 717.503 426.363 708.88 436.026C700.841 445.016 687.621 446.207 678.185 438.717C676.191 437.139 674.375 435.315 672.584 433.491C647.35 407.826 622.128 382.148 596.945 356.432C592.36 351.749 587.306 348.955 580.613 350.843C570.263 353.754 565.996 365.939 572.307 374.762C573.59 376.56 575.216 378.099 576.765 379.69C602.202 405.627 627.704 431.511 653.103 457.5C663.771 468.417 663.568 483.734 652.887 492.944C644.823 499.878 633.215 500.279 624.795 493.798C622.789 492.245 620.947 490.434 619.157 488.623C593.795 462.842 568.447 437.061 543.149 411.215C538.551 406.519 533.51 403.764 526.817 405.64C516.492 408.537 512.225 420.801 518.562 429.584C519.857 431.369 521.483 432.921 523.032 434.5C548.356 460.32 573.717 486.088 599.015 511.934C608.883 522.011 610.178 535.244 601.834 544.726C598.964 547.986 594.786 550.043 590.785 552.941C589.198 550.146 588.284 548.542 587.369 546.925C578.34 531.105 565.005 521.907 547.022 520.42C542.247 520.019 540.494 518.466 540.177 513.473C538.539 488.403 518.156 467.603 493.747 465.559C491.74 465.391 489.759 465.054 487.105 464.718C486.787 449.88 482.088 436.789 471.725 426.169C461.337 415.51 448.561 410.516 433.842 410.206C433.131 405.614 432.737 401.345 431.785 397.218C423.581 361.903 387.412 346.29 355.599 362.705C349.097 366.056 343.153 371.01 337.832 376.172C324.497 389.121 311.683 402.6 298.653 415.859C297.472 417.062 296.241 418.2 294.691 419.701C284.049 409.572 274.702 398.603 266.968 386.262C253.214 364.271 245.149 340.262 242.787 314.274C242.686 313.096 242.292 311.958 242.025 310.807C242 303.588 242 296.357 242 289.139Z" fill="#2DD1AA"/>
<path d="M563.722 214.413C562.3 215.603 560.979 216.651 559.735 217.751C530.398 243.713 501.024 269.624 471.776 295.689C460.956 305.34 448.98 306.517 436.497 300.54C423.759 294.448 417.307 283.646 417.269 269.184C417.244 259.741 420.99 251.759 427.505 245.239C455.483 217.285 482.698 188.438 511.831 161.777C545.562 130.886 586.176 119.347 631.171 125.66C674.667 131.753 709.084 153.783 734.191 190.21C754.904 220.273 763.451 254.036 760.403 290.761C757.774 322.389 746.408 350.356 726.838 374.961C726.114 375.879 725.263 376.694 724.222 377.845C670.68 323.32 617.303 268.964 563.722 214.413Z" fill="#2DD1AA"/>
<path d="M325.12 443.737C325.12 436.092 327.444 430.49 331.889 425.911C342.569 414.916 353.148 403.817 364.146 393.157C373.823 383.766 387.577 384.089 396.416 393.313C405.242 402.51 405.217 416.455 395.946 426.209C385.507 437.191 374.877 448.006 364.095 458.639C356.907 465.728 348.284 467.746 338.924 463.619C330.035 459.7 325.679 452.365 325.12 443.737Z" fill="#2DD1AA"/>
<path d="M431.772 440.867C443.29 441.708 450.339 445.783 454.352 454.321C458.352 462.832 457.908 471.59 451.685 478.446C440.128 491.162 428.102 503.503 415.58 515.236C406.957 523.32 393.469 521.872 385.342 513.321C377.328 504.887 376.21 491.485 384.059 482.87C395.628 470.167 407.782 457.955 420.253 446.184C423.682 442.963 429.181 442.006 431.772 440.867Z" fill="#2DD1AA"/>
<path d="M457.642 575.425C446.059 574.597 438.998 570.471 434.998 561.985C430.997 553.512 431.404 544.741 437.665 537.872C449.234 525.169 461.286 512.867 473.757 501.07C482.127 493.166 495.487 494.395 503.653 502.583C511.793 510.759 513.304 524.458 505.621 533.008C494.014 545.905 481.707 558.207 469.122 570.121C465.706 573.342 460.207 574.3 457.642 575.425Z" fill="#2DD1AA"/>
<path d="M564.332 573.526C564.027 580.279 561.919 585.777 557.576 590.239C546.882 601.209 536.291 612.295 525.344 623.006C515.717 632.423 502.052 632.216 493.099 623.058C484.158 613.899 484.044 599.967 493.315 590.214C504.11 578.869 515.069 567.666 526.309 556.774C533.332 549.97 541.917 548.78 550.743 552.764C559.595 556.8 563.76 564.303 564.332 573.526Z" fill="#2DD1AA"/>
</g>
<path d="M323.678 733.098L318.316 751.73L299.508 817.561H282.457L272.438 774.143L262.418 817.561H245.191L226.383 751.73L221.109 733.098H239.127L252.838 781.174L263.912 733.098H280.963L291.949 780.822L305.572 733.098H323.678ZM370.26 733.098C377.701 733.098 384.469 735.002 390.562 738.811C396.715 742.619 401.607 747.717 405.24 754.104C408.873 760.49 410.689 767.58 410.689 775.373C410.689 783.166 408.873 790.256 405.24 796.643C401.607 803.029 396.715 808.127 390.562 811.936C384.469 815.744 377.701 817.648 370.26 817.648C362.818 817.648 356.021 815.744 349.869 811.936C343.717 808.127 338.824 803.029 335.191 796.643C331.559 790.256 329.742 783.166 329.742 775.373C329.742 767.58 331.559 760.49 335.191 754.104C338.824 747.717 343.717 742.619 349.869 738.811C356.021 735.002 362.818 733.098 370.26 733.098ZM370.26 799.543C376.412 799.543 381.686 797.199 386.08 792.512C390.475 787.766 392.672 782.053 392.672 775.373C392.672 768.693 390.475 763.01 386.08 758.322C381.686 753.576 376.412 751.203 370.26 751.203C364.049 751.203 358.746 753.576 354.352 758.322C349.957 763.01 347.76 768.693 347.76 775.373C347.76 782.053 349.957 787.766 354.352 792.512C358.746 797.199 364.049 799.543 370.26 799.543ZM444.879 701.896V817.385H426.334V701.896H444.879ZM536.021 733.801V817.648H517.828L516.158 817.561H504.557L502.799 817.648C502.154 817.648 501.51 817.619 500.865 817.561H500.777L498.756 817.385C488.854 816.096 480.65 811.818 474.146 804.553C467.701 797.229 464.244 788.293 463.775 777.746V733.801H481.969V776.955C481.969 783.166 483.99 788.469 488.033 792.863C492.135 797.258 497.057 799.455 502.799 799.455H517.828V733.801H536.021ZM624.791 817.561H606.598V773.703H606.51V774.494C606.51 768.283 604.488 762.98 600.445 758.586C596.402 754.191 591.51 751.994 585.768 751.994H570.65V817.561H552.457V733.801H572.32V733.889H584.01L585.768 733.801C586.412 733.801 587.027 733.83 587.613 733.889H587.701L589.811 734.064C599.713 735.295 607.887 739.572 614.332 746.896C620.836 754.221 624.293 763.156 624.703 773.703C624.762 773.938 624.791 774.201 624.791 774.494V817.561ZM711.539 812.375C705.328 816.301 698.473 818.264 690.973 818.264C682.594 818.264 675.035 815.861 668.297 811.057C659.273 804.67 653.502 795.852 650.982 784.602C650.338 781.613 650.016 778.566 650.016 775.461V757.795C646.676 757.854 643.336 757.883 639.996 757.883H637.623V739.777C640.846 739.777 644.977 739.689 650.016 739.514V702.863H668.297V737.756C672.457 736.877 677.027 735.734 682.008 734.328C684.41 733.684 687.076 733.01 690.006 732.307L694.576 749.973C691.705 750.676 689.098 751.379 686.754 752.082C680.543 753.84 674.391 755.246 668.297 756.301V775.461C668.297 777.277 668.473 779.035 668.824 780.734C668.883 781.086 668.971 781.408 669.088 781.701C669.146 782.17 669.264 782.639 669.439 783.107C669.439 783.225 669.498 783.371 669.615 783.547L669.879 784.602H669.967C671.666 789.172 674.391 792.893 678.141 795.764C681.949 798.576 686.227 799.982 690.973 799.982C694.723 799.982 698.18 799.074 701.344 797.258L711.539 812.375ZM783.346 744.26C780.123 745.021 777.135 745.725 774.381 746.369C768.404 747.775 762.633 748.977 757.066 749.973C751.5 750.91 744.732 751.555 736.764 751.906H736.676V817.648L716.988 817.736V734.064L726.48 733.977C729.645 733.918 732.75 733.83 735.797 733.713C742.594 733.479 748.395 732.951 753.199 732.131C758.004 731.252 763.248 730.139 768.932 728.791C771.686 728.146 774.762 727.443 778.16 726.682L783.346 744.26Z" fill="white"/>
<defs>
<clipPath id="clip0_88_9">
<rect width="519" height="506" fill="white" transform="translate(242 124)"/>
</clipPath>
</defs>
</svg>
