<svg width="24" height="30" viewBox="0 0 24 30" fill="none" xmlns="http://www.w3.org/2000/svg">
<path d="M17.3333 4.33325H20C20.7072 4.33325 21.3855 4.6142 21.8856 5.1143C22.3857 5.6144 22.6667 6.29267 22.6667 6.99992V25.6666C22.6667 26.3738 22.3857 27.0521 21.8856 27.5522C21.3855 28.0523 20.7072 28.3333 20 28.3333H4C3.29276 28.3333 2.61448 28.0523 2.11438 27.5522C1.61429 27.0521 1.33334 26.3738 1.33334 25.6666V6.99992C1.33334 6.29267 1.61429 5.6144 2.11438 5.1143C2.61448 4.6142 3.29276 4.33325 4 4.33325H6.66667" stroke="#00252A" stroke-width="2" stroke-linecap="round" stroke-linejoin="round"/>
<path d="M16 13.6667H6.66666" stroke="#00252A" stroke-width="2" stroke-linecap="round"/>
<path d="M12 17.6667H6.66666" stroke="#00252A" stroke-width="2" stroke-linecap="round"/>
<path d="M16 1.66675H8C7.26362 1.66675 6.66666 2.2637 6.66666 3.00008V5.66675C6.66666 6.40313 7.26362 7.00008 8 7.00008H16C16.7364 7.00008 17.3333 6.40313 17.3333 5.66675V3.00008C17.3333 2.2637 16.7364 1.66675 16 1.66675Z" stroke="#00252A" stroke-width="2" stroke-linecap="round" stroke-linejoin="round"/>
</svg>
