<svg width="2271" height="506" viewBox="0 0 2271 506" fill="none" xmlns="http://www.w3.org/2000/svg">
<g clip-path="url(#clip0_108_16)">
<path d="M-9.15527e-05 165.139C1.30798 157.041 2.10806 148.801 4.01302 140.846C17.97 82.7248 52.8181 43.5032 107.998 23.2715C145.844 9.39132 196.389 13.4661 230.538 33.3615C228.506 34.6422 226.677 35.3924 225.369 36.699C205.202 56.8143 185.035 76.9166 165.008 97.1742C137.487 124.999 138.122 167.778 166.29 193.443C187.346 212.627 218.994 215.913 242.336 199.795C254.147 191.645 264.294 180.986 275.152 171.413C290.087 158.245 304.971 145.024 320.059 131.661C321.252 132.722 322.306 133.537 323.234 134.481C370.324 182.435 417.415 230.375 464.48 278.354C474.589 288.664 475.503 302.363 466.88 312.026C458.841 321.017 445.621 322.207 436.185 314.717C434.191 313.139 432.375 311.315 430.584 309.491C405.35 283.826 380.128 258.148 354.945 232.432C350.36 227.749 345.306 224.955 338.613 226.844C328.263 229.754 323.995 241.94 330.307 250.762C331.59 252.56 333.216 254.099 334.765 255.691C360.202 281.627 385.703 307.512 411.103 333.5C421.771 344.418 421.568 359.734 410.887 368.944C402.823 375.878 391.215 376.279 382.795 369.798C380.789 368.246 378.947 366.435 377.157 364.624C351.795 338.842 326.447 313.061 301.149 287.215C296.551 282.52 291.51 279.764 284.817 281.64C274.492 284.538 270.225 296.801 276.562 305.584C277.857 307.369 279.483 308.922 281.032 310.5C306.356 336.32 331.717 362.088 357.015 387.934C366.882 398.011 368.178 411.245 359.834 420.727C356.964 423.986 352.786 426.043 348.785 428.941C347.198 426.147 346.284 424.543 345.369 422.926C336.34 407.105 323.005 397.908 305.022 396.42C300.247 396.019 298.494 394.467 298.177 389.473C296.539 364.404 276.156 343.603 251.747 341.559C249.74 341.391 247.759 341.054 245.105 340.718C244.787 325.881 240.088 312.789 229.725 302.169C219.337 291.51 206.561 286.517 191.842 286.206C191.131 281.614 190.737 277.345 189.785 273.219C181.581 237.904 145.412 222.29 113.599 238.706C107.097 242.056 101.153 247.011 95.8321 252.172C82.4974 265.121 69.6833 278.6 56.6534 291.859C55.4723 293.062 54.2405 294.201 52.6911 295.701C42.0487 285.572 32.7017 274.603 24.9676 262.262C11.2138 240.271 3.14944 216.262 0.787292 190.274C0.685694 189.097 0.292002 187.958 0.0253079 186.807C-9.15527e-05 179.589 -9.15527e-05 172.358 -9.15527e-05 165.139Z" fill="#ABB8EE"/>
<path d="M321.722 90.4133C320.3 91.6034 318.979 92.6512 317.735 93.7508C288.398 119.713 259.024 145.624 229.776 171.689C218.956 181.34 206.98 182.517 194.496 176.54C181.759 170.448 175.307 159.646 175.269 145.184C175.244 135.741 178.99 127.759 185.505 121.24C213.483 93.2851 240.698 64.4381 269.831 37.7772C303.562 6.88634 344.176 -4.65247 389.171 1.66024C432.667 7.75304 467.084 29.7828 492.191 66.2103C512.904 96.2733 521.451 130.036 518.403 166.761C515.774 198.389 504.408 226.357 484.838 250.961C484.114 251.879 483.263 252.694 482.222 253.845C428.68 199.321 375.303 144.964 321.722 90.4133Z" fill="#ABB8EE"/>
<path d="M83.1198 319.737C83.1198 312.092 85.4439 306.49 89.8888 301.911C100.569 290.916 111.148 279.817 122.146 269.157C131.823 259.766 145.577 260.089 154.416 269.313C163.242 278.51 163.217 292.455 153.946 302.209C143.507 313.191 132.877 324.006 122.095 334.639C114.907 341.728 106.284 343.746 96.9244 339.619C88.0346 335.7 83.6786 328.365 83.1198 319.737Z" fill="#ABB8EE"/>
<path d="M189.772 316.868C201.29 317.708 208.339 321.783 212.352 330.321C216.352 338.833 215.908 347.59 209.685 354.446C198.128 367.162 186.102 379.503 173.58 391.236C164.956 399.321 151.469 397.872 143.342 389.321C135.328 380.887 134.21 367.486 142.059 358.87C153.628 346.167 165.782 333.956 178.253 322.184C181.682 318.963 187.181 318.006 189.772 316.868Z" fill="#ABB8EE"/>
<path d="M215.641 451.425C204.059 450.597 196.998 446.47 192.998 437.984C188.997 429.511 189.404 420.741 195.665 413.872C207.234 401.169 219.286 388.867 231.757 377.069C240.127 369.166 253.487 370.395 261.653 378.583C269.793 386.758 271.304 400.457 263.621 409.008C252.014 421.905 239.707 434.207 227.122 446.121C223.706 449.342 218.207 450.299 215.641 451.425Z" fill="#ABB8EE"/>
<path d="M322.332 449.526C322.027 456.279 319.919 461.777 315.575 466.24C304.882 477.209 294.291 488.295 283.344 499.006C273.717 508.423 260.052 508.216 251.099 499.058C242.158 489.899 242.044 475.967 251.315 466.214C262.11 454.869 273.069 443.666 284.309 432.774C291.332 425.97 299.917 424.78 308.743 428.764C317.595 432.8 321.76 440.303 322.332 449.526Z" fill="#ABB8EE"/>
</g>
<path d="M985.749 174.141L970.76 226.181L918.177 410.036H870.509L842.497 288.775L814.486 410.036H766.326L713.743 226.181L699 174.141H749.371L787.703 308.412L818.663 174.141H866.332L897.046 307.431L935.132 174.141H985.749Z" fill="#00252A"/>
<path d="M1115.98 174.141C1136.78 174.141 1155.7 179.46 1172.74 190.097C1189.94 200.734 1203.62 214.971 1213.77 232.808C1223.93 250.646 1229.01 270.447 1229.01 292.211C1229.01 313.976 1223.93 333.777 1213.77 351.615C1203.62 369.452 1189.94 383.689 1172.74 394.326C1155.7 404.963 1136.78 410.282 1115.98 410.282C1095.17 410.282 1076.17 404.963 1058.97 394.326C1041.77 383.689 1028.09 369.452 1017.94 351.615C1007.78 333.777 1002.7 313.976 1002.7 292.211C1002.7 270.447 1007.78 250.646 1017.94 232.808C1028.09 214.971 1041.77 200.734 1058.97 190.097C1076.17 179.46 1095.17 174.141 1115.98 174.141ZM1115.98 359.715C1133.18 359.715 1147.92 353.169 1160.21 340.078C1172.49 326.823 1178.63 310.867 1178.63 292.211C1178.63 273.556 1172.49 257.682 1160.21 244.591C1147.92 231.335 1133.18 224.708 1115.98 224.708C1098.61 224.708 1083.79 231.335 1071.5 244.591C1059.22 257.682 1053.07 273.556 1053.07 292.211C1053.07 310.867 1059.22 326.823 1071.5 340.078C1083.79 353.169 1098.61 359.715 1115.98 359.715Z" fill="#00252A"/>
<path d="M1324.59 87V409.545H1272.74V87H1324.59Z" fill="#00252A"/>
<path d="M1579.4 176.105V410.282H1528.53L1523.86 410.036H1491.43L1486.52 410.282C1484.71 410.282 1482.91 410.2 1481.11 410.036H1480.86L1475.21 409.545C1447.53 405.945 1424.6 393.999 1406.41 373.707C1388.39 353.251 1378.73 328.295 1377.42 298.839V176.105H1428.28V296.63C1428.28 313.976 1433.93 328.786 1445.24 341.06C1456.7 353.333 1470.46 359.47 1486.52 359.47H1528.53V176.105H1579.4Z" fill="#00252A"/>
<path d="M1827.57 410.036H1776.7V287.548H1776.46V289.757C1776.46 272.41 1770.81 257.6 1759.5 245.327C1748.2 233.054 1734.52 226.917 1718.47 226.917H1676.21V410.036H1625.34V176.105H1680.88V176.35H1713.56L1718.47 176.105C1720.27 176.105 1721.99 176.187 1723.63 176.35H1723.88L1729.77 176.841C1757.46 180.278 1780.31 192.224 1798.33 212.68C1816.51 233.135 1826.17 258.091 1827.32 287.548C1827.49 288.202 1827.57 288.939 1827.57 289.757V410.036Z" fill="#00252A"/>
<path d="M2070.09 395.554C2052.72 406.518 2033.56 412 2012.59 412C1989.17 412 1968.03 405.291 1949.2 391.872C1923.97 374.034 1907.83 349.406 1900.79 317.986C1898.99 309.64 1898.09 301.13 1898.09 292.457V243.118C1888.75 243.281 1879.41 243.363 1870.08 243.363H1863.44V192.797C1872.45 192.797 1884 192.551 1898.09 192.06V89.7002H1949.2V187.151C1960.83 184.696 1973.6 181.505 1987.53 177.578C1994.24 175.778 2001.7 173.896 2009.89 171.932L2022.66 221.271C2014.64 223.235 2007.35 225.199 2000.8 227.162C1983.43 232.072 1966.23 235.999 1949.2 238.945V292.457C1949.2 297.53 1949.69 302.439 1950.67 307.185C1950.83 308.167 1951.08 309.067 1951.41 309.885C1951.57 311.194 1951.9 312.504 1952.39 313.813C1952.39 314.14 1952.55 314.549 1952.88 315.04L1953.62 317.986H1953.86C1958.61 330.75 1966.23 341.141 1976.72 349.16C1987.36 357.015 1999.32 360.943 2012.59 360.943C2023.07 360.943 2032.74 358.406 2041.58 353.333L2070.09 395.554Z" fill="#00252A"/>
<path d="M2270.84 205.316C2261.83 207.443 2253.47 209.407 2245.77 211.207C2229.06 215.134 2212.93 218.489 2197.37 221.271C2181.81 223.889 2162.89 225.69 2140.61 226.671H2140.36V410.282L2085.32 410.527V176.841L2111.86 176.596C2120.7 176.432 2129.39 176.187 2137.9 175.86C2156.91 175.205 2173.12 173.732 2186.56 171.441C2199.99 168.986 2214.65 165.877 2230.54 162.113C2238.24 160.313 2246.84 158.349 2256.34 156.222L2270.84 205.316Z" fill="#00252A"/>
<defs>
<clipPath id="clip0_108_16">
<rect width="519" height="506" fill="white"/>
</clipPath>
</defs>
</svg>
